<svg width="397" height="505" viewBox="0 0 397 505" fill="none" xmlns="http://www.w3.org/2000/svg">
<path d="M77.6145 475.675C80.4367 476.665 83.4668 476.913 86.4128 476.395C89.3589 475.877 92.1216 474.61 94.435 472.716C100.326 467.777 102.176 459.642 103.676 452.109L108.122 429.827L98.815 436.227C92.1219 440.829 85.2787 445.579 80.6442 452.246C76.0097 458.912 73.9871 468.012 77.7103 475.225" fill="#5D8B2F"/>
<path d="M78.41 502.651C77.4681 495.799 76.4993 488.859 77.16 481.933C77.7471 475.782 79.6256 469.775 83.4515 464.849C85.4821 462.239 87.953 460.003 90.7531 458.241C91.4835 457.782 92.1549 458.937 91.4283 459.395C86.5836 462.453 82.8364 466.968 80.7269 472.289C78.397 478.207 78.023 484.658 78.4276 490.945C78.6706 494.746 79.1849 498.522 79.7037 502.295C79.7455 502.466 79.7204 502.646 79.6335 502.799C79.5466 502.952 79.4045 503.066 79.2362 503.117C79.0651 503.163 78.8827 503.14 78.7286 503.053C78.5744 502.965 78.4611 502.821 78.4131 502.65L78.41 502.651Z" fill="#F2F2F2"/>
<path d="M79.8821 466.334C76.1002 467.661 72.0396 467.994 68.0916 467.299C64.1436 466.605 60.4413 464.907 57.3413 462.368C49.4463 455.751 46.9679 444.849 44.9569 434.753L39 404.894L51.4716 413.47C60.4409 419.638 69.6115 426.003 75.8222 434.937C82.0328 443.87 84.7432 456.066 79.7537 465.732" fill="#5D8B2F"/>
<path d="M78.8161 502.485C80.0783 493.302 81.3766 484.002 80.4913 474.721C79.7045 466.478 77.1872 458.428 72.0601 451.826C69.3389 448.329 66.0276 445.333 62.2753 442.972C61.2965 442.356 60.3968 443.904 61.3705 444.518C67.8628 448.615 72.8844 454.666 75.7113 461.797C78.8336 469.728 79.3348 478.373 78.7925 486.797C78.4669 491.891 77.7777 496.951 77.0824 502.008C77.0264 502.236 77.0601 502.478 77.1766 502.683C77.293 502.887 77.4835 503.04 77.7089 503.109C77.9382 503.171 78.1827 503.14 78.3893 503.023C78.5958 502.906 78.7477 502.712 78.812 502.484L78.8161 502.485Z" fill="#F2F2F2"/>
<path d="M396.912 372.839C396.912 381.676 389.749 388.839 380.912 388.839H23.5482C14.7117 388.839 7.54822 381.676 7.54822 372.839V16C7.54822 7.16344 14.7117 0 23.5482 0H380.912C389.749 0 396.912 7.16344 396.912 16V372.839Z" fill="white"/>
<path d="M396.912 372.839C396.912 381.676 389.749 388.839 380.912 388.839H23.5482C14.7117 388.839 7.54822 381.676 7.54822 372.839V16C7.54822 7.16344 14.7117 0 23.5482 0H380.912C389.749 0 396.912 7.16344 396.912 16V372.839ZM13.301 367.094C13.301 375.931 20.4644 383.094 29.301 383.094H375.159C383.996 383.094 391.159 375.931 391.159 367.094V21.7451C391.159 12.9085 383.996 5.74507 375.159 5.74507H29.301C20.4644 5.74507 13.301 12.9085 13.301 21.7451V367.094Z" fill="#5D8B2F"/>
<path d="M327.935 60.834H159.324V66.0793H327.935V60.834Z" fill="#5D8B2F"/>
<path d="M327.935 74.4716H159.324V79.7169H327.935V74.4716Z" fill="#5D8B2F"/>
<path d="M327.935 88.1094H159.324V93.3546H327.935V88.1094Z" fill="#5D8B2F"/>
<path d="M327.935 177.937H159.324V183.183H327.935V177.937Z" fill="#5D8B2F"/>
<path d="M327.935 191.575H159.324V196.82H327.935V191.575Z" fill="#5D8B2F"/>
<path d="M327.935 205.213H159.324V210.458H327.935V205.213Z" fill="#5D8B2F"/>
<path d="M327.935 295.041H159.324V300.286H327.935V295.041Z" fill="#5D8B2F"/>
<path d="M327.935 308.678H159.324V313.924H327.935V308.678Z" fill="#5D8B2F"/>
<path d="M327.935 322.316H159.324V327.561H327.935V322.316Z" fill="#5D8B2F"/>
<path d="M91.8252 102.625C88.9448 101.109 85.9381 99.8458 82.8391 98.8487L82.444 94.4832L66.4177 92.7589L64.3809 98.3387L58.6294 100.494C58.4236 100.572 58.2277 100.674 58.0458 100.798H58.0395C57.7186 101.014 57.4452 101.294 57.2361 101.62C57.027 101.945 56.8867 102.31 56.8236 102.692C56.7621 103.072 56.7767 103.46 56.8663 103.833L57.1703 105.078C57.6079 105.339 58.0579 105.588 58.5077 105.825L58.7936 105.971C59.4502 106.311 60.1191 106.633 60.806 106.93C60.9458 106.991 61.0978 107.051 61.2377 107.112C61.2498 107.118 61.2558 107.118 61.2679 107.124C61.5903 107.258 61.9124 107.385 62.2408 107.507C63.3193 107.918 64.4193 108.271 65.536 108.563C68.3861 109.322 71.3231 109.706 74.2727 109.705C75.3489 109.705 76.4128 109.656 77.4646 109.553C79.8679 109.331 82.2405 108.853 84.5416 108.126C84.5475 108.126 84.5538 108.12 84.5597 108.12C86.0133 107.658 87.4334 107.096 88.8096 106.438C88.8156 106.432 88.8278 106.432 88.834 106.426C89.1439 106.28 89.442 106.123 89.7459 105.971L89.8917 105.898C90.1348 105.77 90.3783 105.643 90.6214 105.509C91.2294 105.175 91.8252 104.823 92.4148 104.447C92.5789 104.35 92.7372 104.246 92.9013 104.137C93.1323 103.985 93.3633 103.827 93.5883 103.663C93.0228 103.299 92.4332 102.953 91.8252 102.625Z" fill="#3F3D56"/>
<path d="M61.7483 105.315L60.7452 100.792H58.1247C58.0983 100.792 58.0719 100.794 58.0458 100.798H58.0395C57.0978 100.877 56.1909 101.191 55.401 101.709C54.8652 102.05 54.3888 102.477 53.9906 102.971C54.7687 103.56 55.5773 104.107 56.4103 104.629L56.4468 104.647C56.6837 104.793 56.9272 104.939 57.1703 105.078C57.608 105.339 58.058 105.588 58.5077 105.825L58.7936 105.971C59.4503 106.311 60.1191 106.633 60.8061 106.93C60.9459 106.991 61.0979 107.052 61.2377 107.112C61.2499 107.118 61.2558 107.118 61.268 107.124C61.5904 107.258 61.9125 107.386 62.2408 107.507L61.7483 105.315Z" fill="#3F3D56"/>
<path d="M73.8019 89.999C80.1765 89.999 85.3442 84.8383 85.3442 78.4723C85.3442 72.1062 80.1765 66.9456 73.8019 66.9456C67.4273 66.9456 62.2596 72.1062 62.2596 78.4723C62.2596 84.8383 67.4273 89.999 73.8019 89.999Z" fill="#FFB8B8"/>
<path d="M66.0525 72.858C67.2473 74.27 69.2694 74.6685 71.1346 74.8319C75.4956 75.0725 79.8691 74.7158 84.1332 73.7719C84.3974 76.3294 83.677 79.0869 85.1854 81.1907C85.8925 78.6437 86.3036 76.024 86.4107 73.3832C86.5234 72.2501 86.3752 71.1063 85.9776 70.0392C85.7651 69.5044 85.4065 69.0399 84.9428 68.6984C84.479 68.357 83.9286 68.1523 83.3542 68.1077C84.2141 67.4562 85.2214 67.0262 86.2871 66.8555L82.6222 65.0162L83.5633 64.0513L76.9282 63.6458L78.85 62.4266C75.9575 62.0297 73.0314 61.9374 70.1196 62.1514C68.7589 62.152 67.4241 62.5225 66.2583 63.2232C65.1628 64.0056 64.5297 65.5605 65.2098 66.7092C64.3584 66.8488 63.5567 67.2032 62.8808 67.7388C62.2048 68.2744 61.677 68.9735 61.3473 69.7698C60.9304 71.0356 60.8297 72.3839 61.0541 73.6974C61.3041 75.8048 61.7945 77.8768 62.5158 79.8729L66.0525 72.858Z" fill="#2F2E41"/>
<path d="M106.259 65.977C104.639 61.3309 102.024 57.0935 98.5965 53.5603C95.1687 50.0271 91.0104 47.2832 86.4116 45.5198C81.8128 43.7564 76.8841 43.016 71.9693 43.3503C67.0546 43.6846 62.272 45.0856 57.955 47.4554C53.6381 49.8252 49.8908 53.1069 46.9744 57.0717C44.058 61.0364 42.0426 65.5887 41.069 70.4112C40.0953 75.2337 40.1868 80.2102 41.3369 84.9938C42.487 89.7773 44.6682 94.2528 47.7282 98.108C48.0322 98.4905 48.3484 98.873 48.6708 99.2434C48.6951 99.2677 48.7132 99.292 48.7376 99.3163C49.5301 100.228 50.3724 101.096 51.2606 101.915C51.4919 102.127 51.735 102.346 51.9781 102.552C52.4401 102.965 52.9145 103.36 53.407 103.736C53.6014 103.888 53.7899 104.04 53.9906 104.186C54.7687 104.775 55.5773 105.321 56.4103 105.843L56.4469 105.861C56.6838 106.007 56.9272 106.153 57.1703 106.293C57.608 106.554 58.058 106.803 58.5077 107.039L58.7936 107.185C59.4503 107.525 60.1191 107.847 60.8061 108.144C60.9459 108.205 61.0979 108.266 61.2377 108.327C61.2499 108.333 61.2558 108.333 61.268 108.339C61.5904 108.472 61.9125 108.6 62.2408 108.721C63.3193 109.133 64.4193 109.485 65.536 109.778C68.3861 110.536 71.3232 110.92 74.2728 110.919C75.3489 110.919 76.4129 110.871 77.4647 110.767C79.868 110.546 82.2405 110.067 84.5416 109.341C84.5476 109.341 84.5538 109.334 84.5598 109.334C86.0134 108.872 87.4334 108.31 88.8097 107.653C88.8156 107.647 88.8278 107.647 88.834 107.641C89.1439 107.495 89.442 107.337 89.746 107.185L89.8918 107.112C90.1349 106.985 90.3783 106.857 90.6215 106.724C91.2294 106.39 91.8252 106.038 92.4148 105.661C92.579 105.564 92.7372 105.461 92.9014 105.351C93.1323 105.2 93.3633 105.042 93.5883 104.878C93.8861 104.671 94.1841 104.459 94.4759 104.24C94.5671 104.174 94.6645 104.107 94.7556 104.034C100.452 99.7163 104.632 93.7086 106.699 86.8719C108.765 80.0353 108.611 72.7208 106.259 65.977ZM93.637 102.558C93.4363 102.716 93.2297 102.868 93.0228 103.008C92.8221 103.16 92.6217 103.305 92.4148 103.439C92.2385 103.566 92.0621 103.688 91.8799 103.803L91.8252 103.84C91.6914 103.931 91.5578 104.016 91.4239 104.101C90.9192 104.416 90.4085 104.72 89.8918 105.011L89.7276 105.103C89.4966 105.23 89.2657 105.351 89.0347 105.473C89.0041 105.491 88.9676 105.503 88.9374 105.521L88.9009 105.54C88.609 105.691 88.311 105.837 88.0132 105.977C86.8636 106.53 85.6797 107.008 84.4687 107.41C84.3104 107.464 84.1525 107.519 83.9946 107.568C81.8165 108.259 79.5703 108.715 77.2946 108.928C76.2974 109.019 75.2881 109.067 74.2728 109.067C71.4829 109.073 68.7047 108.71 66.0104 107.987C64.6277 107.626 63.2725 107.168 61.9552 106.614C61.8881 106.584 61.8151 106.56 61.7483 106.529C61.6756 106.499 61.6085 106.475 61.5417 106.444C61.4687 106.414 61.4019 106.384 61.3288 106.347C60.7574 106.098 60.1918 105.825 59.6388 105.54L59.3713 105.4C58.6962 105.048 58.0336 104.671 57.3891 104.271C57.2006 104.155 57.0062 104.034 56.8236 103.906C56.7752 103.876 56.7325 103.846 56.6838 103.815C56.2521 103.53 55.8205 103.232 55.401 102.923C55.1154 102.71 54.8296 102.498 54.5499 102.279C54.0817 101.927 53.6317 101.551 53.1941 101.162C52.9632 100.968 52.7381 100.755 52.5194 100.555C51.6573 99.76 50.8413 98.9167 50.0753 98.0291C49.8199 97.7377 49.5706 97.4462 49.3334 97.1426C49.2795 97.0826 49.2287 97.0198 49.1814 96.9544C45.2311 91.9764 42.8551 85.9362 42.3563 79.6042C41.8575 73.2721 43.2586 66.9352 46.3807 61.4015C49.5029 55.8679 54.2048 51.3883 59.8866 48.5341C65.5685 45.6799 71.9729 44.5804 78.283 45.3759C84.5931 46.1713 90.5229 48.8257 95.3163 53.0004C100.11 57.1751 103.549 62.681 105.197 68.8159C106.844 74.9508 106.624 81.4366 104.565 87.4463C102.507 93.4559 98.7021 98.7169 93.637 102.558Z" fill="#3F3D56"/>
<path d="M106.259 183.081C104.639 178.434 102.025 174.197 98.5968 170.664C95.169 167.131 91.0107 164.387 86.4119 162.623C81.813 160.86 76.8844 160.12 71.9696 160.454C67.0549 160.788 62.2723 162.189 57.9553 164.559C53.6384 166.929 49.8911 170.21 46.9747 174.175C44.0583 178.14 42.043 182.692 41.0693 187.515C40.0956 192.337 40.1871 197.314 41.3372 202.097C42.4873 206.881 44.6684 211.356 47.7285 215.212C48.0325 215.594 48.3486 215.977 48.6707 216.347C48.6951 216.371 48.7132 216.396 48.7375 216.42C49.5302 217.332 50.3726 218.199 51.2609 219.018C51.4919 219.231 51.735 219.45 51.9781 219.656C52.4403 220.069 52.9144 220.464 53.4069 220.84C54.3685 221.597 55.3712 222.3 56.4103 222.947L56.4468 222.965C57.1216 223.384 57.8086 223.772 58.508 224.143L58.7936 224.289C59.4502 224.629 60.1191 224.95 60.806 225.248C60.9458 225.309 61.0978 225.369 61.2377 225.43C61.2498 225.436 61.2561 225.436 61.2682 225.442C62.6563 226.019 64.0823 226.499 65.5363 226.881C68.3863 227.64 71.3233 228.023 74.2727 228.023C75.3489 228.023 76.4128 227.974 77.4646 227.871C79.8679 227.649 82.2405 227.171 84.5416 226.444C84.5479 226.444 84.5538 226.438 84.5597 226.438C86.0134 225.976 87.4334 225.414 88.8097 224.756C88.8156 224.75 88.8281 224.75 88.834 224.744C89.1439 224.598 89.442 224.44 89.746 224.289L89.892 224.216C90.1351 224.088 90.3783 223.961 90.6214 223.827C91.2294 223.493 91.8252 223.141 92.4151 222.765C92.5792 222.667 92.7372 222.564 92.9013 222.455C93.4363 222.103 93.9653 221.726 94.4759 221.344C94.5674 221.277 94.6644 221.21 94.7559 221.137C100.452 216.82 104.632 210.812 106.699 203.975C108.765 197.139 108.611 189.824 106.259 183.081Z" fill="white"/>
<path d="M85.4497 208.141C88.2532 208.141 90.5258 205.871 90.5258 203.072C90.5258 200.272 88.2532 198.002 85.4497 198.002C82.6463 198.002 80.3737 200.272 80.3737 203.072C80.3737 205.871 82.6463 208.141 85.4497 208.141Z" fill="#2F2E41"/>
<path d="M86.864 198.142C87.7425 198.142 88.606 198.37 89.37 198.803C90.1341 199.236 90.7725 199.86 91.2228 200.613C91.6731 201.366 91.92 202.224 91.9392 203.101C91.9585 203.978 91.7494 204.845 91.3326 205.617C91.7725 205.067 92.093 204.432 92.2735 203.752C92.454 203.071 92.4906 202.361 92.381 201.666C92.2714 200.97 92.0179 200.305 91.6368 199.713C91.2557 199.121 90.7553 198.615 90.1674 198.227C89.5795 197.838 88.9172 197.577 88.2224 197.458C87.5277 197.34 86.8158 197.367 86.1323 197.538C85.4487 197.71 84.8083 198.021 84.252 198.454C83.6957 198.886 83.2356 199.429 82.9011 200.048C83.3757 199.453 83.9785 198.973 84.6647 198.643C85.3509 198.313 86.1023 198.142 86.864 198.142Z" fill="#2F2E41"/>
<path d="M75.964 203.06C84.1993 203.06 90.8753 196.393 90.8753 188.169C90.8753 179.945 84.1993 173.278 75.964 173.278C67.7287 173.278 61.0527 179.945 61.0527 188.169C61.0527 196.393 67.7287 203.06 75.964 203.06Z" fill="#2F2E41"/>
<path d="M64.261 178.93C66.8304 176.045 70.4219 174.269 74.2775 173.977C78.1332 173.686 81.9514 174.902 84.9263 177.369C84.8047 177.253 84.6831 177.136 84.5572 177.024C81.6116 174.388 77.7384 173.03 73.7897 173.246C69.8409 173.463 66.14 175.237 63.5012 178.179C60.8624 181.121 59.5018 184.989 59.7187 188.932C59.9356 192.875 61.7123 196.571 64.6579 199.207C64.6862 199.232 64.7147 199.257 64.7431 199.282C64.8696 199.395 64.9997 199.501 65.1292 199.608C62.3278 196.947 60.6713 193.302 60.5095 189.444C60.3476 185.586 61.6924 181.816 64.261 178.93Z" fill="#2F2E41"/>
<path d="M75.8377 202.934C81.1416 202.934 85.4413 198.64 85.4413 193.343C85.4413 188.047 81.1416 183.753 75.8377 183.753C70.5337 183.753 66.234 188.047 66.234 193.343C66.234 198.64 70.5337 202.934 75.8377 202.934Z" fill="#A0616A"/>
<path d="M93.0229 218.332V221.55C92.4331 221.927 91.8372 222.279 91.2293 222.613C90.9861 222.746 90.743 222.874 90.4999 223.001L90.3538 223.074C90.0498 223.226 89.7518 223.384 89.4418 223.529C89.4359 223.536 89.4234 223.536 89.4175 223.542C88.0412 224.199 86.6212 224.761 85.1676 225.223C85.1616 225.223 85.1557 225.229 85.1495 225.229C82.8483 225.956 80.4758 226.435 78.0725 226.656C77.0207 226.76 75.9567 226.808 74.8806 226.808C71.9311 226.809 68.9941 226.425 66.1441 225.667C64.6902 225.285 63.2642 224.804 61.8761 224.228C61.8639 224.222 61.8577 224.222 61.8455 224.216C61.7057 224.155 61.5537 224.094 61.4139 224.033C60.7269 223.736 60.0581 223.414 59.4014 223.074L59.1158 222.928C58.4164 222.558 57.7295 222.169 57.0547 221.75L57.0182 221.732C55.9791 221.086 54.9764 220.382 54.0148 219.625C53.5223 219.249 53.0482 218.854 52.586 218.441C52.3429 218.235 52.0997 218.016 51.8688 217.804C50.9805 216.985 50.1381 216.117 49.3454 215.205C49.4505 214.573 49.6051 213.95 49.8076 213.341L49.8136 213.335C49.8499 213.232 49.8926 213.13 49.9412 213.032C49.9748 212.944 50.0133 212.859 50.0567 212.777C51.145 210.743 53.115 210.239 55.5591 210.129C56.9392 210.069 58.4651 210.135 60.0765 210.117C60.9276 210.111 61.809 210.081 62.6907 210.002C68.2537 209.498 67.2446 206.219 67.4937 204.452C67.7431 202.74 69.2874 204.222 69.3907 204.319L69.3966 204.325C72.5447 205.796 76.0277 206.406 79.4892 206.092C80.085 206.019 80.6808 205.976 81.2766 205.958C82.8452 205.94 82.5047 206.389 81.9638 206.76C81.7012 206.932 81.427 207.086 81.143 207.221C81.143 207.221 80.8936 208.739 80.6383 211.01C80.3952 213.183 84.5659 214.203 84.9123 214.282C84.9195 214.287 84.9281 214.289 84.9366 214.288C86.4598 213.894 88.0634 213.936 89.5636 214.41H89.5695C90.4268 214.725 91.1916 215.248 91.7947 215.933C92.3978 216.618 92.82 217.443 93.0229 218.332Z" fill="#5D8B2F"/>
<path d="M61.9367 222.236C61.9367 222.685 61.9248 223.117 61.9064 223.523C61.9005 223.766 61.8883 224.003 61.8762 224.228C61.864 224.222 61.8578 224.222 61.8456 224.216C61.7058 224.155 61.5538 224.094 61.4139 224.033C60.727 223.736 60.0582 223.414 59.4015 223.074L59.1159 222.928C58.4165 222.558 57.7296 222.169 57.0548 221.75C57.0729 221.538 57.1035 221.325 57.1337 221.113C57.2005 220.645 57.2554 220.172 57.2919 219.704C57.531 216.42 56.9349 213.128 55.5591 210.135V210.129C55.4374 209.887 55.3647 209.753 55.3647 209.753C55.3647 209.753 57.1337 208.235 59.6568 209.753C59.818 209.848 59.9603 209.971 60.0765 210.117C61.5965 211.908 62.0098 217.931 61.9367 222.236Z" fill="#2F2E41"/>
<path d="M89.5452 221.411C89.5209 222.091 89.4844 222.801 89.4419 223.524V223.53C89.436 223.536 89.4235 223.536 89.4176 223.542C88.0413 224.199 86.6213 224.761 85.1676 225.224C85.1617 225.224 85.1558 225.23 85.1495 225.23L85.0827 223.524L85.0765 223.299L84.7544 214.993C84.7458 214.805 84.7754 214.617 84.8415 214.441C84.9075 214.265 85.0087 214.103 85.1388 213.967C85.2689 213.831 85.4253 213.723 85.5985 213.649C85.7717 213.574 85.9582 213.536 86.1467 213.536H89.229C89.381 213.536 89.4906 213.845 89.5636 214.404V214.41C89.7131 216.741 89.707 219.08 89.5452 221.411Z" fill="#2F2E41"/>
<path d="M67.6238 181.355V190.948H69.8478L72.678 187.92L72.2992 190.948H82.1303L81.5223 187.92L82.7382 190.948H84.3056V181.355H67.6238Z" fill="#2F2E41"/>
<path d="M66.1076 192.713C66.5263 192.713 66.8657 192.091 66.8657 191.325C66.8657 190.558 66.5263 189.937 66.1076 189.937C65.6889 189.937 65.3494 190.558 65.3494 191.325C65.3494 192.091 65.6889 192.713 66.1076 192.713Z" fill="#A0616A"/>
<path d="M85.5683 192.713C85.987 192.713 86.3264 192.091 86.3264 191.325C86.3264 190.558 85.987 189.937 85.5683 189.937C85.1496 189.937 84.8101 190.558 84.8101 191.325C84.8101 192.091 85.1496 192.713 85.5683 192.713Z" fill="#A0616A"/>
<path d="M95.0839 220.13C94.5733 220.512 94.0443 220.888 93.5093 221.241C93.3452 221.35 93.1872 221.453 93.023 221.55C92.4332 221.927 91.8374 222.279 91.2294 222.613C90.9863 222.746 90.7431 222.874 90.5 223.001V216.31C90.5 216.31 91.4725 217.088 93.023 218.381C93.2175 218.545 93.4182 218.715 93.631 218.897C94.0808 219.273 94.5673 219.686 95.0839 220.13Z" fill="#5D8B2F"/>
<path d="M106.259 183.081C104.639 178.434 102.025 174.197 98.5968 170.664C95.169 167.131 91.0107 164.387 86.4119 162.623C81.813 160.86 76.8844 160.12 71.9696 160.454C67.0549 160.788 62.2723 162.189 57.9553 164.559C53.6384 166.929 49.8911 170.21 46.9747 174.175C44.0583 178.14 42.043 182.692 41.0693 187.515C40.0956 192.337 40.1871 197.314 41.3372 202.097C42.4873 206.881 44.6684 211.356 47.7285 215.212C48.0325 215.594 48.3486 215.977 48.6707 216.347C48.6951 216.371 48.7132 216.396 48.7375 216.42C49.5302 217.332 50.3726 218.199 51.2609 219.018C51.4919 219.231 51.735 219.45 51.9781 219.656C52.4403 220.069 52.9144 220.464 53.4069 220.84C54.3685 221.597 55.3712 222.3 56.4103 222.947L56.4468 222.965C57.1216 223.384 57.8086 223.772 58.508 224.143L58.7936 224.289C59.4502 224.629 60.1191 224.95 60.806 225.248C60.9458 225.309 61.0978 225.369 61.2377 225.43C61.2498 225.436 61.2561 225.436 61.2682 225.442C62.6563 226.019 64.0823 226.499 65.5363 226.881C68.3863 227.64 71.3233 228.023 74.2727 228.023C75.3489 228.023 76.4128 227.974 77.4646 227.871C79.8679 227.649 82.2405 227.171 84.5416 226.444C84.5479 226.444 84.5538 226.438 84.5597 226.438C86.0134 225.976 87.4334 225.414 88.8097 224.756C88.8156 224.75 88.8281 224.75 88.834 224.744C89.1439 224.598 89.442 224.44 89.746 224.289L89.892 224.216C90.1351 224.088 90.3783 223.961 90.6214 223.827C91.2294 223.493 91.8252 223.141 92.4151 222.765C92.5792 222.667 92.7372 222.564 92.9013 222.455C93.4363 222.103 93.9653 221.726 94.4759 221.344C94.5674 221.277 94.6644 221.21 94.7559 221.137C100.452 216.82 104.632 210.812 106.699 203.975C108.765 197.139 108.611 189.824 106.259 183.081ZM93.637 219.662C93.4363 219.82 93.2297 219.972 93.0231 220.111C92.8224 220.263 92.6217 220.409 92.4151 220.542C92.2388 220.67 92.0624 220.791 91.8799 220.907C91.7279 221.01 91.5759 221.107 91.4239 221.204C90.9195 221.52 90.4089 221.824 89.892 222.115L89.7275 222.206C89.4966 222.334 89.2656 222.455 89.0347 222.576C89.0041 222.595 88.9676 222.607 88.9373 222.625L88.9008 222.643C88.609 222.795 88.3112 222.941 88.0132 223.08C86.8636 223.633 85.6796 224.112 84.4686 224.513C84.3107 224.568 84.1525 224.623 83.9945 224.671C81.8165 225.363 79.5702 225.819 77.2945 226.031C76.2974 226.122 75.288 226.171 74.2727 226.171C71.4829 226.176 68.7046 225.813 66.0104 225.09C64.6277 224.73 63.2725 224.271 61.9552 223.718C61.8154 223.663 61.6755 223.602 61.5417 223.548C61.4689 223.517 61.4018 223.487 61.3288 223.451C60.7573 223.202 60.1921 222.929 59.6388 222.643L59.3713 222.504C58.6965 222.151 58.0336 221.775 57.3891 221.374C57.1522 221.228 56.915 221.077 56.6841 220.919C55.9544 220.439 55.2431 219.923 54.5499 219.383C54.0817 219.031 53.632 218.654 53.1941 218.266C52.9631 218.071 52.7381 217.859 52.5193 217.658C51.6573 216.863 50.8413 216.02 50.0752 215.133C49.8199 214.841 49.5706 214.55 49.3334 214.246C49.2794 214.186 49.2287 214.123 49.1814 214.058C45.2311 209.08 42.8551 203.04 42.3563 196.708C41.8575 190.376 43.2585 184.039 46.3807 178.505C49.5029 172.971 54.2048 168.492 59.8866 165.638C65.5685 162.783 71.9728 161.684 78.2829 162.479C84.5931 163.275 90.5229 165.929 95.3163 170.104C100.11 174.279 103.549 179.785 105.197 185.919C106.844 192.054 106.624 198.54 104.565 204.55C102.507 210.559 98.702 215.82 93.637 219.662Z" fill="#3F3D56"/>
<path d="M74.464 326.504C81.7929 326.504 87.7341 320.571 87.7341 313.252C87.7341 305.933 81.7929 300 74.464 300C67.1351 300 61.1939 305.933 61.1939 313.252C61.1939 320.571 67.1351 326.504 74.464 326.504Z" fill="#2F2E41"/>
<path d="M64.106 306.107C66.2504 303.965 66.685 300.927 65.0767 299.321C63.4684 297.715 60.4263 298.149 58.2819 300.29C56.1375 302.432 55.7029 305.47 57.3112 307.076C58.9195 308.682 61.9616 308.248 64.106 306.107Z" fill="#2F2E41"/>
<path d="M88.295 301.898C89.1885 299.809 87.652 297.152 84.8632 295.962C82.0743 294.772 79.0892 295.501 78.1957 297.59C77.3022 299.679 78.8388 302.337 81.6276 303.526C84.4165 304.716 87.4016 303.987 88.295 301.898Z" fill="#2F2E41"/>
<path d="M90.3371 338.958L88.7736 336.501C88.1102 335.021 86.8865 333.864 85.3705 333.283C83.8545 332.702 82.1698 332.745 80.6854 333.402C79.201 334.059 78.0379 335.277 77.4508 336.789C76.8637 338.301 76.9005 339.983 77.5532 341.468L77.9978 343.06L78.5038 344.866C80.5521 344.608 82.5732 344.168 84.543 343.55C84.5488 343.549 84.5542 343.546 84.5583 343.542C86.0143 343.082 87.4358 342.519 88.8121 341.858C88.8196 341.851 88.8271 341.851 88.835 341.843C89.1415 341.698 89.4404 341.545 89.747 341.392C89.797 341.369 89.8456 341.343 89.8925 341.315C90.1376 341.193 90.3831 341.062 90.6208 340.932C90.8659 340.802 91.1034 340.664 91.3333 340.519L90.3371 338.958Z" fill="#5D8B2F"/>
<path d="M74.885 327.662C81.1049 327.662 86.1472 322.627 86.1472 316.415C86.1472 310.204 81.1049 305.168 74.885 305.168C68.6651 305.168 63.6228 310.204 63.6228 316.415C63.6228 322.627 68.6651 327.662 74.885 327.662Z" fill="#FFB6B6"/>
<path d="M91.1495 338.476C89.9072 336.413 88.3652 334.545 86.5739 332.934C85.3469 331.839 83.7589 331.234 82.1135 331.235H66.2486C65.3344 331.235 64.4299 331.422 63.5909 331.784C62.7519 332.147 61.9963 332.677 61.3706 333.343C60.745 334.008 60.2627 334.795 59.9536 335.654C59.6444 336.513 59.5149 337.427 59.5731 338.338C59.6078 338.852 59.7004 339.36 59.8493 339.853C59.9624 340.211 60.1033 340.559 60.2707 340.894L61.0524 342.456C61.1138 342.479 61.1752 342.509 61.2362 342.532C61.2515 342.54 61.2594 342.54 61.2668 342.547C61.5887 342.678 61.9109 342.808 62.2402 342.93C63.3187 343.342 64.4189 343.694 65.536 343.986C67.3341 344.468 69.1697 344.799 71.0232 344.974C72.104 345.073 73.1848 345.127 74.273 345.127C75.3538 345.127 76.4113 345.073 77.4689 344.974C77.8139 344.943 78.1586 344.905 78.5036 344.867C80.552 344.608 82.5731 344.168 84.5429 343.55C84.5487 343.549 84.5541 343.547 84.5582 343.542C86.0142 343.082 87.4357 342.52 88.812 341.859C88.8195 341.851 88.827 341.851 88.8349 341.843C89.1413 341.698 89.4403 341.545 89.7468 341.392C89.7969 341.369 89.8455 341.344 89.8924 341.315C90.1375 341.193 90.383 341.063 90.6206 340.932C90.8657 340.802 91.1033 340.665 91.3332 340.519C91.5786 340.389 91.8084 340.244 92.0461 340.098C91.755 339.524 91.456 338.988 91.1495 338.476Z" fill="#5D8B2F"/>
<path d="M69.1227 333.286C67.6546 332.6 65.9742 332.523 64.4491 333.071C62.9239 333.619 61.678 334.747 60.9837 336.21L59.5732 338.338L58.8989 339.356L57.872 340.902C58.0864 341.017 58.2934 341.131 58.5082 341.246L58.7915 341.392C59.4509 341.728 60.1174 342.05 60.8074 342.348C60.8838 342.387 60.9684 342.417 61.0525 342.455C61.1139 342.478 61.1753 342.509 61.2363 342.532C61.2516 342.54 61.2595 342.54 61.267 342.547C61.5888 342.677 61.911 342.808 62.2403 342.93C63.3188 343.342 64.419 343.694 65.5361 343.986C67.3342 344.468 69.1698 344.799 71.0233 344.974L71.56 343.16L72.0813 341.43C72.7683 339.958 72.8427 338.274 72.2881 336.747C71.7334 335.22 70.5951 333.976 69.1227 333.286Z" fill="#5D8B2F"/>
<path d="M63.051 309.341C65.6245 311.112 68.6792 312.055 71.8048 312.043C70.6898 312.815 69.4206 313.336 68.0844 313.571C72.2401 314.462 76.5351 314.486 80.7006 313.642C81.6265 313.494 82.5199 313.187 83.3417 312.736C83.7511 312.508 84.1079 312.196 84.3888 311.821C84.6696 311.446 84.8683 311.016 84.9718 310.559C85.2486 308.98 84.0165 307.545 82.736 306.578C80.7755 305.12 78.515 304.116 76.1181 303.638C73.7212 303.159 71.2478 303.219 68.8769 303.812C67.2972 304.13 65.8596 304.941 64.7723 306.129C64.2462 306.733 63.9286 307.491 63.8664 308.289C63.8042 309.088 64.0007 309.885 64.4269 310.563L63.051 309.341Z" fill="#2F2E41"/>
<path d="M106.263 300.184C104.644 295.537 102.029 291.299 98.6015 287.765C95.1737 284.232 91.0153 281.487 86.4163 279.723C81.8172 277.96 76.8882 277.219 71.9731 277.553C67.058 277.887 62.275 279.288 57.9578 281.658C53.6405 284.028 49.8929 287.31 46.9764 291.275C44.0598 295.24 42.0445 299.793 41.071 304.616C40.0974 309.439 40.1891 314.416 41.3396 319.199C42.4901 323.983 44.6717 328.459 47.7323 332.314C48.031 332.697 48.3532 333.08 48.675 333.447C48.6935 333.474 48.714 333.5 48.7364 333.523C49.5301 334.435 50.3744 335.301 51.2654 336.118C51.4952 336.332 51.7328 336.554 51.9783 336.761C52.4379 337.174 52.9131 337.565 53.4112 337.94C53.6028 338.093 53.7944 338.246 53.9939 338.391C54.7678 338.981 55.5802 339.524 56.408 340.052C56.4222 340.052 56.4358 340.058 56.4462 340.067C56.6838 340.213 56.9293 340.358 57.1744 340.496C57.4042 340.634 57.6418 340.772 57.872 340.902C58.0864 341.017 58.2934 341.131 58.5082 341.246L58.7915 341.392C59.4508 341.728 60.1174 342.05 60.8074 342.348C60.8838 342.387 60.9684 342.417 61.0525 342.455C61.1139 342.478 61.1753 342.509 61.2363 342.532C61.2516 342.54 61.2595 342.54 61.2669 342.547C61.5887 342.677 61.911 342.808 62.2403 342.93C63.3188 343.342 64.419 343.694 65.5361 343.986C67.3342 344.468 69.1698 344.799 71.0233 344.974C72.1041 345.073 73.1848 345.127 74.2731 345.127C75.3539 345.127 76.4114 345.073 77.469 344.974C77.814 344.943 78.1587 344.905 78.5037 344.866C80.552 344.608 82.5732 344.168 84.543 343.55C84.5488 343.549 84.5542 343.546 84.5583 343.542C86.0143 343.082 87.4358 342.519 88.8121 341.858C88.8196 341.851 88.8271 341.851 88.8349 341.843C89.1414 341.698 89.4404 341.545 89.7469 341.392C89.797 341.369 89.8456 341.343 89.8925 341.315C90.1376 341.193 90.3831 341.062 90.6207 340.932C90.8658 340.802 91.1033 340.664 91.3332 340.519C91.5787 340.389 91.8085 340.243 92.0461 340.098C92.1689 340.022 92.2915 339.945 92.414 339.868C92.5828 339.769 92.7359 339.669 92.9046 339.555C93.1344 339.409 93.3646 339.248 93.5865 339.088C93.8855 338.881 94.1845 338.667 94.4756 338.445C94.5738 338.381 94.6684 338.312 94.7593 338.238C100.451 333.917 104.628 327.91 106.695 321.075C108.761 314.24 108.61 306.928 106.263 300.184ZM93.6404 336.761C93.4409 336.922 93.234 337.075 93.0274 337.213C92.8201 337.366 92.621 337.511 92.414 337.649C92.2378 337.771 92.0615 337.894 91.8778 338.009C91.8611 338.023 91.8431 338.036 91.8239 338.047C91.6937 338.139 91.5556 338.223 91.4254 338.307C91.3333 338.361 91.2416 338.422 91.1496 338.476C90.8812 338.644 90.6129 338.805 90.3371 338.958C90.1916 339.05 90.0381 339.134 89.8925 339.218C89.839 339.249 89.7851 339.279 89.7316 339.31C89.4939 339.44 89.2642 339.555 89.034 339.677C89.0037 339.7 88.9652 339.708 88.9423 339.731C88.9281 339.731 88.9144 339.736 88.9038 339.746C88.6127 339.899 88.3137 340.045 88.015 340.182C86.8643 340.735 85.6788 341.213 84.4662 341.614C84.3132 341.667 84.1523 341.728 83.9989 341.774C82.0443 342.393 80.0347 342.824 77.9978 343.06C77.768 343.091 77.5304 343.114 77.2927 343.137C76.2966 343.228 75.2925 343.274 74.2731 343.274C73.3686 343.274 72.4566 343.236 71.56 343.16C69.6854 343.004 67.8285 342.681 66.0114 342.195C64.6282 341.835 63.2731 341.375 61.9571 340.818C61.8878 340.787 61.819 340.764 61.7501 340.733C61.6734 340.703 61.612 340.68 61.5432 340.649C61.4665 340.619 61.4051 340.588 61.3284 340.55C60.8303 340.335 60.3322 340.098 59.8494 339.853C59.7802 339.815 59.7114 339.784 59.6425 339.746L59.3742 339.608C59.2133 339.524 59.0524 339.44 58.8989 339.356C58.3855 339.08 57.8795 338.782 57.3893 338.476C57.2052 338.361 57.0061 338.238 56.822 338.116L56.6839 338.024C56.2547 337.733 55.8258 337.442 55.404 337.128C55.1204 336.914 54.8292 336.707 54.5534 336.485C54.086 336.133 53.6336 335.758 53.1969 335.368C52.9667 335.177 52.737 334.962 52.5225 334.763C51.6595 333.969 50.8432 333.126 50.0777 332.238C49.8247 331.947 49.5718 331.656 49.3341 331.35C49.2806 331.289 49.2346 331.227 49.1807 331.158C45.2296 326.18 42.8528 320.139 42.3535 313.806C41.8542 307.473 43.255 301.136 46.3772 295.601C49.4995 290.066 54.2017 285.586 59.8842 282.731C65.5666 279.876 71.9718 278.776 78.2828 279.572C84.5938 280.367 90.5246 283.021 95.3188 287.196C100.113 291.371 103.553 296.878 105.201 303.014C106.849 309.149 106.629 315.636 104.57 321.647C102.511 327.657 98.706 332.919 93.6404 336.761Z" fill="#3F3D56"/>
<path d="M130.937 134.928C119.143 124.99 104.712 118.69 89.3978 116.793C74.084 114.897 58.5484 117.486 44.6814 124.246C30.8144 131.007 19.214 141.646 11.2916 154.871C3.36928 168.095 -0.533355 183.334 0.0586102 198.733C0.650575 214.132 5.71161 229.027 14.6259 241.606C23.5401 254.185 35.9233 263.905 50.2685 269.583C64.6136 275.262 80.3023 276.655 95.4255 273.591C110.549 270.528 124.454 263.141 135.45 252.329L233.091 334.607C234.578 335.855 236.499 336.463 238.434 336.299C240.368 336.134 242.159 335.21 243.413 333.729C244.666 332.248 245.281 330.331 245.122 328.399C244.962 326.466 244.042 324.675 242.563 323.419L242.552 323.41L144.911 241.132C156.254 224.874 161.108 204.973 158.523 185.327C155.938 165.681 146.1 147.707 130.937 134.928ZM124.642 233.209C117.036 242.212 106.927 248.76 95.5934 252.025C84.2603 255.29 72.2122 255.125 60.9726 251.552C49.733 247.979 39.8068 241.158 32.4491 231.951C25.0915 222.745 20.6329 211.566 19.6371 199.828C18.6414 188.091 21.1533 176.322 26.8551 166.011C32.5569 155.699 41.1926 147.307 51.6701 141.897C62.1476 136.487 73.9963 134.3 85.7179 135.615C97.4395 136.929 108.508 141.686 117.522 149.282C129.611 159.469 137.152 174.034 138.488 189.773C139.823 205.512 134.843 221.137 124.642 233.209Z" fill="#3F3D56"/>
<path opacity="0.3" d="M40.6022 240.319C29.1613 230.677 21.7696 217.091 19.8948 202.259C18.02 187.427 21.7993 172.433 30.4822 160.254C29.3419 161.401 28.2395 162.602 27.1751 163.857C22.1245 169.835 18.3022 176.747 15.9266 184.2C13.551 191.653 12.6686 199.5 13.3298 207.293C13.9909 215.086 16.1827 222.673 19.7799 229.621C23.3771 236.568 28.3093 242.74 34.2949 247.784C40.2806 252.828 47.2024 256.645 54.6652 259.017C62.128 261.39 69.9857 262.271 77.7895 261.611C85.5933 260.95 93.1905 258.762 100.147 255.169C107.104 251.577 113.284 246.651 118.335 240.674C119.397 239.417 120.397 238.13 121.335 236.812C110.775 247.409 96.6103 253.651 81.6541 254.301C66.698 254.951 52.0441 249.96 40.6022 240.319Z" fill="black"/>
<path d="M327.781 337.683C328.544 336.753 329.093 335.668 329.39 334.503C329.688 333.338 329.725 332.122 329.501 330.941C329.277 329.76 328.796 328.643 328.093 327.667C327.389 326.692 326.48 325.883 325.429 325.296L307.632 252.547L294.648 256.686L313.867 328.939C312.997 330.767 312.829 332.85 313.394 334.793C313.96 336.736 315.219 338.405 316.935 339.483C318.65 340.561 320.701 340.973 322.7 340.641C324.7 340.31 326.507 339.257 327.781 337.683Z" fill="#FFB6B6"/>
<path d="M318.582 291.15L309.094 299.324L295.82 310.752L289.957 280.795L289.344 277.68L288.861 275.208L302.311 251.81L313.524 252.452L314.29 252.498L314.306 252.667L314.482 254.236L316.781 274.885L316.835 275.384L318.582 291.15Z" fill="#3F3D56"/>
<path d="M256.565 494.492L247.169 494.491L242.699 458.298L256.567 458.299L256.565 494.492Z" fill="#FFB6B6"/>
<path d="M258.962 503.588L228.665 503.586V503.204C228.665 500.081 229.907 497.085 232.119 494.877C234.33 492.668 237.33 491.428 240.457 491.427H240.458L258.962 491.428L258.962 503.588Z" fill="#2F2E41"/>
<path d="M354.666 495.257L345.27 495.257L340.8 459.063L354.668 459.064L354.666 495.257Z" fill="#FFB6B6"/>
<path d="M357.062 504.353L326.765 504.352V503.969C326.766 500.846 328.008 497.851 330.22 495.642C332.431 493.434 335.43 492.193 338.558 492.193H338.559L357.063 492.194L357.062 504.353Z" fill="#2F2E41"/>
<path d="M362.176 480.849L336.884 484.676L300.089 360.317L261.009 485.442L232.652 481.615L269.44 336.193V324.712L274.422 307.491L273.9 302.83L270.275 270.232L268.704 256.096L268.602 255.182C268.517 254.416 268.72 253.645 269.172 253.02C269.625 252.395 270.294 251.961 271.049 251.802L282.852 249.322H302.143L313.524 252.452L314.306 252.667L314.658 252.766L314.482 254.236L311.815 276.569L311.669 277.794L309.094 299.324L308.527 304.047C330.753 320.12 331.519 336.193 331.519 336.193L362.176 480.849Z" fill="#2F2E41"/>
<path d="M290.166 239.639C300.562 239.639 308.99 231.222 308.99 220.84C308.99 210.458 300.562 202.042 290.166 202.042C279.77 202.042 271.342 210.458 271.342 220.84C271.342 231.222 279.77 239.639 290.166 239.639Z" fill="#FFB6B6"/>
<path d="M309.937 299.727L272.7 304.59L273.396 309.903L310.633 305.039L309.937 299.727Z" fill="#3F3D56"/>
<path d="M222.752 306.192C223.108 306.422 223.445 306.679 223.761 306.962L260.592 297.586L263.104 288.713L277.01 290.749L274.09 306.889C273.854 308.193 273.201 309.386 272.229 310.287C271.257 311.189 270.018 311.752 268.699 311.89L225.694 316.413C224.993 317.887 223.86 319.113 222.444 319.927C221.029 320.742 219.398 321.107 217.77 320.974C216.142 320.84 214.593 320.215 213.329 319.181C212.065 318.148 211.147 316.754 210.695 315.186C210.244 313.618 210.281 311.95 210.802 310.403C211.323 308.857 212.304 307.506 213.612 306.53C214.921 305.553 216.497 304.998 218.129 304.937C219.762 304.877 221.374 305.314 222.752 306.192Z" fill="#FFB6B6"/>
<path d="M279.403 256.593L272.889 251.618C271.127 250.951 268.714 252.847 268.29 254.68L259.093 292.183L278.254 305.96L280.936 301.751L279.403 256.593Z" fill="#3F3D56"/>
<g opacity="0.2">
<path d="M316.781 274.886C315.155 275.53 313.498 276.092 311.815 276.569C311.278 276.73 310.727 276.883 310.182 277.029C306.595 278.023 302.91 278.618 299.192 278.804C297.592 278.872 295.989 278.828 294.394 278.674C292.683 278.504 290.992 278.171 289.344 277.679C289.29 277.664 289.228 277.649 289.175 277.633C285.748 276.662 282.606 274.879 280.016 272.436C279.438 271.874 278.897 271.273 278.399 270.638C276.968 268.887 275.918 266.858 275.316 264.68C274.715 262.501 274.574 260.222 274.904 257.986C274.968 257.581 275.055 257.18 275.165 256.784C275.454 255.707 275.836 254.657 276.307 253.646C276.514 253.172 276.744 252.705 276.989 252.246L285.649 249.322H302.143L313.524 252.452L314.29 252.498L314.306 252.667L314.658 252.766L314.482 254.236L316.781 274.886Z" fill="black"/>
</g>
<path d="M275.742 205.277C272.222 204.846 268.358 205.151 265.615 207.395C262.871 209.64 261.985 214.305 264.583 216.716C266.883 218.851 270.479 218.349 273.56 218.956C276.214 219.55 278.591 221.016 280.312 223.119C282.033 225.222 282.997 227.841 283.051 230.557C283.005 238.344 275.521 244.241 274.177 251.911C273.26 257.146 275.471 262.656 279.293 266.354C283.115 270.052 288.37 272.05 293.664 272.591C298.958 273.133 304.311 272.306 309.456 270.948C314.623 269.584 319.709 267.649 324.045 264.528C328.38 261.407 331.933 257.007 333.325 251.855C334.717 246.702 333.718 240.794 330.131 236.838C326.024 232.308 319.191 230.75 315.638 225.774C311.656 220.196 313.129 212.253 309.906 206.205C307.754 202.168 303.679 199.414 299.336 197.963C294.992 196.513 290.354 196.226 285.776 196.086C283.37 196.012 280.89 195.987 278.648 196.863C276.407 197.739 274.436 199.736 274.32 202.137C274.204 204.539 275.742 205.277 275.742 205.277Z" fill="#2F2E41"/>
<path d="M395.984 504H9.01567C8.74629 504 8.48797 503.947 8.2975 503.854C8.10702 503.76 8 503.633 8 503.5C8 503.367 8.10702 503.24 8.2975 503.146C8.48797 503.053 8.74629 503 9.01567 503H395.984C396.254 503 396.512 503.053 396.702 503.146C396.893 503.24 397 503.367 397 503.5C397 503.633 396.893 503.76 396.702 503.854C396.512 503.947 396.254 504 395.984 504Z" fill="#5D8B2F"/>
</svg>
